<?xml version="1.0" standalone="no"?>
<!DOCTYPE svg PUBLIC "-//W3C//DTD SVG 20010904//EN"
 "http://www.w3.org/TR/2001/REC-SVG-20010904/DTD/svg10.dtd">
<svg version="1.0" xmlns="http://www.w3.org/2000/svg"
 width="335.000000pt" height="335.000000pt" viewBox="0 0 335.000000 335.000000"
 preserveAspectRatio="xMidYMid meet">
<metadata>
Created by potrace 1.14, written by Peter Selinger 2001-2017
</metadata>
<g transform="translate(0.000000,335.000000) scale(0.100000,-0.100000)"
fill="#000000" stroke="none">
<path d="M830 3343 c-35 -7 -792 -762 -815 -813 -13 -29 -16 -51 -10 -87 6
-47 12 -54 366 -408 l359 -361 -359 -359 c-318 -318 -360 -364 -367 -398 -16
-88 -13 -91 404 -509 418 -418 421 -420 509 -403 33 6 81 50 399 367 l361 359
353 -355 c248 -249 364 -359 387 -367 39 -13 87 -8 128 14 17 8 199 186 407
394 406 408 409 412 394 500 -7 33 -50 81 -367 398 l-359 360 359 361 c393
395 388 388 362 477 -11 36 -71 100 -399 429 -418 417 -421 420 -509 403 -33
-6 -81 -50 -398 -366 l-360 -359 -350 350 c-193 193 -364 357 -381 365 -31 15
-64 17 -114 8z m115 -454 c19 -17 189 -186 378 -375 189 -189 347 -344 350
-344 4 0 171 164 373 365 201 202 377 370 390 375 37 15 91 12 125 -5 44 -24
329 -312 345 -351 16 -38 18 -82 5 -116 -5 -13 -174 -189 -375 -390 -201 -201
-366 -368 -366 -372 0 -3 164 -170 366 -372 201 -201 369 -377 375 -390 15
-41 10 -97 -11 -132 -28 -46 -317 -332 -347 -343 -31 -11 -85 -12 -115 0 -13
5 -188 173 -389 375 -202 201 -370 366 -374 366 -4 0 -171 -164 -372 -365
-200 -201 -375 -370 -389 -375 -45 -17 -99 -12 -137 15 -52 34 -327 315 -338
343 -12 31 -11 84 1 116 5 14 174 189 375 389 201 201 365 367 365 371 0 3
-164 171 -365 371 -201 201 -370 377 -375 391 -16 41 -11 97 10 132 30 49 307
322 343 338 57 24 112 18 152 -17z m782 -425 c27 -11 43 -23 43 -34 0 -28 -25
-103 -61 -180 l-33 -72 -27 55 c-32 63 -69 168 -69 196 0 12 13 24 38 34 48
20 57 20 109 1z m-699 -724 c42 -17 92 -39 110 -48 l33 -18 -79 -37 c-44 -20
-103 -42 -132 -49 -58 -13 -61 -11 -82 54 -9 31 -8 45 6 83 22 56 36 57 144
15z m1436 -10 c9 -22 16 -47 16 -55 0 -8 -7 -33 -16 -55 -13 -31 -21 -40 -40
-40 -26 0 -156 48 -214 80 l-35 18 25 10 c14 6 48 20 75 32 65 29 125 48 151
49 16 1 26 -9 38 -39z m-730 -688 c48 -120 46 -140 -16 -160 -44 -13 -52 -13
-93 2 -35 14 -45 23 -45 41 0 28 21 90 62 178 37 79 36 80 92 -61z"/>
<path d="M1201 2236 c-39 -14 -87 -66 -94 -103 -8 -44 11 -89 51 -119 80 -60
295 -234 385 -313 l28 -25 -23 -20 c-73 -66 -169 -146 -288 -241 -74 -59 -139
-114 -144 -122 -15 -27 -8 -92 13 -122 43 -60 108 -81 160 -52 16 9 73 72 127
141 53 69 134 167 178 218 l81 92 25 -27 c14 -16 48 -55 75 -88 28 -33 55 -65
60 -71 6 -6 48 -60 95 -119 93 -119 126 -154 146 -156 32 -3 41 -3 71 5 34 8
92 66 94 94 6 80 0 89 -111 176 -47 37 -92 72 -100 79 -8 7 -37 30 -65 52 -27
22 -63 52 -80 67 -16 14 -47 41 -68 60 l-39 34 53 44 c28 25 66 57 83 73 17
15 95 77 173 139 131 102 162 136 158 173 -8 70 -49 121 -110 135 -51 11 -93
-8 -132 -62 -17 -24 -40 -54 -52 -68 -11 -14 -24 -30 -28 -35 -22 -29 -88
-111 -93 -115 -3 -3 -25 -30 -50 -60 -25 -30 -59 -69 -76 -88 l-30 -33 -99
116 c-55 64 -134 162 -178 218 -43 56 -86 107 -95 113 -28 19 -65 23 -101 10z"/>
</g>
</svg>
