<svg xmlns="http://www.w3.org/2000/svg" fill="none" viewBox="0 0 40 41"><g clip-path="url(#prefix__clip0)"><path fill="#264DE4" d="M5.57 36.76L2.37.7h35.27l-3.22 36.04-14.44 4-14.4-4z"/><path fill="#2965F1" d="M31.67 34.46l2.75-30.8H20V37.7l11.67-3.23z"/><path fill="#EBEBEB" d="M9.72 17.03l.4 4.42H20v-4.42H9.72zm-.39-4.53H20V8.08H8.93l.4 4.42zM20 28.5l-.02.01-4.92-1.33-.31-3.52h-4.43l.62 6.94 9.04 2.51H20v-4.6z"/><path fill="#fff" d="M19.98 17.03v4.42h5.44l-.51 5.73-4.93 1.33v4.6l9.06-2.51.06-.75 1.04-11.63.1-1.2.8-8.94H19.99v4.42h6.23l-.4 4.53h-5.83z"/></g><defs><clipPath id="prefix__clip0"><path fill="#fff" d="M0 0h40v40.04H0z" transform="translate(0 .71)"/></clipPath></defs></svg>