<svg xmlns="http://www.w3.org/2000/svg" fill="none" viewBox="0 0 40 40"><path fill="#E34F26" d="M5.55 35.94L2.83 5.44A5 5 0 017.8 0h24.3a5 5 0 014.98 5.44L34.7 32.5a5 5 0 01-3.64 4.37L19.92 40"/><path fill="#EF652A" d="M20 36.88l11.64-3.2 2.73-30.79H20"/><path fill="#EBEBEB" d="M20 16.25h-5.86l-.39-4.53H20V7.34H8.91l.07 1.18 1.1 12.18H20v-4.45zm0 11.48h-.08L15 26.41l-.31-3.52H10.3l.55 6.95 9.06 2.5H20v-4.6z"/><path fill="#fff" d="M19.92 16.25v4.45h5.47l-.55 5.7-4.92 1.33v4.61l9.06-2.5.08-.78 1.02-11.64.15-1.17H19.92zm0-8.9v4.37h10.7l.08-.94.24-2.26.08-1.18h-11.1z"/></svg>