<svg xmlns="http://www.w3.org/2000/svg" fill="none" viewBox="0 0 40 40"><path fill="#F7DF1E" d="M35 0H5a5 5 0 00-5 5v30a5 5 0 005 5h30a5 5 0 005-5V5a5 5 0 00-5-5z"/><path fill="#000" d="M26.87 31.25c.8 1.32 1.85 2.28 3.7 2.28 1.57 0 2.56-.78 2.56-1.85 0-1.29-1.02-1.75-2.74-2.5l-.94-.4c-2.7-1.16-4.51-2.6-4.51-5.66 0-2.82 2.15-4.97 5.5-4.97 2.4 0 4.11.83 5.35 3.01l-2.93 1.88c-.64-1.16-1.34-1.61-2.42-1.61-1.1 0-1.8.7-1.8 1.61 0 1.13.7 1.58 2.32 2.28l.94.4c3.19 1.38 5 2.77 5 5.91 0 3.38-2.66 5.24-6.24 5.24-3.49 0-5.74-1.67-6.84-3.85l3.05-1.77zm-13.28.33c.6 1.04 1.13 1.93 2.42 1.93 1.24 0 2.01-.48 2.01-2.36V18.37h3.76V31.2c0 3.89-2.28 5.66-5.6 5.66-3.02 0-4.76-1.56-5.65-3.43l3.06-1.85z"/></svg>