<svg width="46" height="42" fill="none" xmlns="http://www.w3.org/2000/svg"><path d="M45.508 21.005c0-3.018-3.775-5.878-9.563-7.652 1.336-5.906.742-10.605-1.874-12.11-.603-.352-1.308-.52-2.078-.52v2.072c.427 0 .77.083 1.058.241 1.261.725 1.808 3.483 1.382 7.03a28.627 28.627 0 01-.473 2.73 44.92 44.92 0 00-5.89-1.012 45.294 45.294 0 00-3.86-4.643c3.024-2.814 5.863-4.356 7.792-4.356V.715c-2.55 0-5.89 1.82-9.266 4.977-3.377-3.139-6.716-4.94-9.267-4.94v2.07c1.92 0 4.768 1.533 7.792 4.328a43.853 43.853 0 00-3.831 4.634 43.285 43.285 0 00-5.9 1.021 28.055 28.055 0 01-.482-2.693c-.436-3.547.102-6.305 1.354-7.039.278-.167.64-.241 1.067-.241V.76c-.78 0-1.484.167-2.096.52C8.765 2.785 8.18 7.475 9.527 13.363 3.757 15.146 0 17.997 0 21.005c0 3.018 3.775 5.879 9.564 7.652-1.336 5.906-.742 10.605 1.873 12.11.603.353 1.308.52 2.088.52 2.55 0 5.89-1.82 9.266-4.978 3.377 3.14 6.716 4.94 9.267 4.94.78 0 1.484-.166 2.096-.52 2.607-1.504 3.191-6.193 1.846-12.08 5.752-1.775 9.508-4.635 9.508-7.644zm-12.077-6.194a41.865 41.865 0 01-1.252 3.669c-.38-.743-.78-1.486-1.216-2.23a50.213 50.213 0 00-1.335-2.172c1.317.195 2.588.436 3.803.733zm-4.248 9.89a49.492 49.492 0 01-2.236 3.548 48.224 48.224 0 01-8.367.009 51.165 51.165 0 01-2.245-3.529 48.415 48.415 0 01-1.93-3.696 48.452 48.452 0 011.92-3.705 49.447 49.447 0 012.236-3.547 48.18 48.18 0 018.367-.01 51.19 51.19 0 012.245 3.53 48.38 48.38 0 011.93 3.695 52.034 52.034 0 01-1.92 3.705zm2.996-1.207c.5 1.244.927 2.489 1.28 3.696a41.576 41.576 0 01-3.822.743 51.31 51.31 0 001.336-2.2c.427-.744.825-1.496 1.206-2.239zm-9.406 9.909a38.29 38.29 0 01-2.579-2.972c.835.037 1.688.065 2.55.065.873 0 1.736-.018 2.58-.065a36.248 36.248 0 01-2.551 2.972zm-6.902-5.47a41.792 41.792 0 01-3.803-.734c.343-1.198.77-2.433 1.252-3.668.38.743.78 1.486 1.216 2.229.436.743.88 1.467 1.335 2.173zm6.855-19.325a38.29 38.29 0 012.58 2.972 57.273 57.273 0 00-2.552-.065c-.872 0-1.734.018-2.579.065a36.248 36.248 0 012.551-2.972zm-6.864 5.47a51.27 51.27 0 00-2.542 4.43 39.818 39.818 0 01-1.28-3.697 45.032 45.032 0 013.822-.733zM7.467 25.704c-3.283-1.402-5.408-3.24-5.408-4.699 0-1.458 2.125-3.306 5.408-4.698.798-.344 1.67-.65 2.57-.938a44.616 44.616 0 002.087 5.655 44.015 44.015 0 00-2.06 5.627 28.167 28.167 0 01-2.597-.947zm4.99 13.27c-1.26-.724-1.808-3.482-1.381-7.03.102-.872.269-1.791.473-2.73 1.818.446 3.803.79 5.89 1.013a45.304 45.304 0 003.859 4.643c-3.024 2.814-5.863 4.355-7.792 4.355-.418-.009-.77-.093-1.048-.25zm22.004-7.076c.436 3.548-.102 6.306-1.355 7.04-.278.167-.64.24-1.067.24-1.92 0-4.767-1.531-7.791-4.327a43.84 43.84 0 003.83-4.633 43.282 43.282 0 005.9-1.022c.214.938.38 1.839.483 2.702zm3.57-6.194c-.797.344-1.669.65-2.569.938a44.643 44.643 0 00-2.087-5.655 44.01 44.01 0 002.06-5.628c.918.288 1.79.604 2.606.947 3.284 1.403 5.408 3.241 5.408 4.7-.01 1.457-2.133 3.305-5.417 4.698z" fill="#61DAFB"/><path d="M22.745 25.25c2.341 0 4.24-1.9 4.24-4.245a4.242 4.242 0 00-4.24-4.243c-2.341 0-4.24 1.9-4.24 4.243a4.242 4.242 0 004.24 4.244z" fill="#61DAFB"/></svg>